# xmcd CD database file
#
# Track frame offsets:
#	150
#	24007
#	43311
#	56491
#	138710
#	170170
#	181562
#	210706
#	237048
#	250965
#
# Disc length: 3696 seconds
#
# Revision: 0
# Processed by: cddbd v1.5.2PL0 Copyright (c) Steve Scherf et al.
# Submitted via: CDex 1.70beta2
#
DISCID=860e6e0a
DTITLE=Orsted Peterson, Niels.Henning - Uncharted land
DYEAR=1991
DGENRE=Jazz
TTITLE0=moving pictures
TTITLE1=uncharted land
TTITLE2=natten er s' stille
TTITLE3=nordavind
TTITLE4=a nightingale song in berkeley square
TTITLE5=someday my prince will come
TTITLE6=joron
TTITLE7=too many names
TTITLE8=uncharted alnd (instrumental)
TTITLE9=blank space
EXTD=YEAR: 1991
EXTT0=
EXTT1=
EXTT2=
EXTT3=
EXTT4=
EXTT5=
EXTT6=
EXTT7=
EXTT8=
EXTT9=
PLAYORDER=
